<svg fill="none" height="34" viewBox="0 0 34 34" width="34" xmlns="http://www.w3.org/2000/svg">
    <path
        d="M14.6797 33.9854C7.00002 33.0253 0.967102 26.9924 0.00801056 19.3146C-0.0671602 18.7214 0.396282 18.195 0.99632 18.195H5.02247C5.50882 18.195 5.92319 18.5462 6.00494 19.0248C6.77922 23.6103 10.3812 27.2133 14.9696 27.9885C15.4482 28.0702 15.7994 28.4846 15.7994 28.971V32.9971C15.7993 33.5895 15.2857 34.0575 14.6797 33.9854ZM5.0228 15.9373H0.996652C0.396282 15.9373 -0.0667618 15.4105 0.00834259 14.8177C1.06279 6.37039 8.28051 0 16.7958 0C20.5788 0 24.1652 1.23341 27.168 3.56702C27.6456 3.93962 27.6814 4.63827 27.2614 5.05822L24.4152 7.90541C24.0708 8.25072 23.53 8.29355 23.1331 8.01239C21.2645 6.6807 19.0729 5.97647 16.7957 5.97647C11.437 5.97647 6.89815 9.81682 6.0052 15.1075C5.92352 15.586 5.50916 15.9373 5.0228 15.9373ZM18.0571 32.998V28.9719C18.0571 28.4855 18.4082 28.0712 18.8868 27.9894C24.1775 27.0965 28.0179 22.5577 28.0179 17.1989C28.0179 14.9217 27.3137 12.7302 25.982 10.8615C25.6999 10.4656 25.7446 9.9228 26.0889 9.57942L28.9361 6.73323C29.3507 6.31866 30.0515 6.34496 30.4273 6.82659C32.7609 9.82944 33.9944 13.4159 33.9944 17.1988C33.9944 25.7141 27.6239 32.9318 19.1767 33.9863C19.0365 34.0039 18.8942 33.9915 18.7592 33.9499C18.6242 33.9083 18.4996 33.8384 18.3937 33.745C18.2878 33.6515 18.203 33.5365 18.145 33.4077C18.087 33.279 18.057 33.1393 18.0571 32.998Z"
        fill="url(#paint0_linear_829_930)" />
    <path
        d="M13.0097 13.0155C13.0097 12.4654 12.5637 12.0194 12.0136 12.0194H10.0215C9.47137 12.0194 9.02539 12.4654 9.02539 13.0155V20.9841C9.02539 21.5342 9.47137 21.9802 10.0215 21.9802H12.0136C12.5637 21.9802 13.0097 21.5342 13.0097 20.9841V13.0155ZM18.9862 20.9841V11.0233C18.9862 10.4732 18.5402 10.0272 17.9901 10.0272H15.9979C15.4478 10.0272 15.0019 10.4732 15.0019 11.0233V20.9841C15.0019 21.5342 15.4478 21.9802 15.9979 21.9802H17.9901C18.5403 21.9802 18.9862 21.5342 18.9862 20.9841ZM24.9627 20.9841V16.9998C24.9627 16.4497 24.5167 16.0037 23.9666 16.0037H21.9744C21.4243 16.0037 20.9783 16.4497 20.9783 16.9998V20.9841C20.9783 21.5342 21.4243 21.9802 21.9744 21.9802H23.9666C24.5167 21.9802 24.9627 21.5342 24.9627 20.9841Z"
        fill="url(#paint1_linear_829_930)" />
    <defs>
        <linearGradient gradientUnits="userSpaceOnUse" id="paint0_linear_829_930" x1="16.9972" x2="16.9972" y1="0"
            y2="33.9941">
            <stop stop-color="#378CE7" />
            <stop offset="1" stop-color="#1F4E81" />
        </linearGradient>
        <linearGradient gradientUnits="userSpaceOnUse" id="paint1_linear_829_930" x1="16.994" x2="16.994" y1="10.0272"
            y2="21.9802">
            <stop stop-color="#378CE7" />
            <stop offset="1" stop-color="#1F4E81" />
        </linearGradient>
    </defs>
</svg>
